Coordinates
version=1
nRows=10
nColumns=23
inDegrees=yes

Units are S.I. units (second, meters, Newtons, ...)
If the header above contains a line with 'inDegrees', this indicates whether rotational values are in degrees (yes) or radians (no).

endheader
time	pelvis_tilt	pelvis_list	pelvis_rotation	pelvis_tx	pelvis_ty	pelvis_tz	hip_flexion_r	hip_adduction_r	hip_rotation_r	knee_angle_r	knee_angle_r_beta	ankle_angle_r	subtalar_angle_r	mtp_angle_r	hip_flexion_l	hip_adduction_l	hip_rotation_l	knee_angle_l	knee_angle_l_beta	ankle_angle_l	subtalar_angle_l	mtp_angle_l
      0.00000000	     -4.12703137	      1.06783158	      0.62544761	      2.27103966	      1.01361632	      1.01905838	     31.35891152	     -0.53439335	      0.18318432	     80.31839532	      1.40182045	     -0.16326429	    -16.52088038	      0.00000000	      3.47573368	      3.16369016	     -5.26421140	     33.61145425	      0.58663054	     23.48614762	      6.08976542	      0.00000000
      0.00666667	     -4.26989154	      0.85455345	      0.17611879	      2.27263303	      1.01918740	      1.01964776	     31.88938725	      0.03084973	      0.26863325	     77.50056966	      1.35264011	      0.07635696	    -16.80093640	      0.00000000	      1.88743281	      2.97581242	     -5.64959635	     31.89306364	      0.55663897	     20.93057694	      5.87949475	      0.00000000
      0.01333333	     -4.45151471	      0.53983540	     -0.16183576	      2.27450472	      1.02469766	      1.02003206	     32.25546172	      0.59642068	      0.15808481	     74.46865908	      1.29972329	      0.47322899	    -16.77176659	      0.00000000	      0.29309876	      2.72713942	     -5.88820722	     30.04614904	      0.52440423	     18.12980032	      5.45578212	      0.00000000
      0.02000000	     -4.56371996	      0.18531368	     -0.43264912	      2.27655011	      1.03022643	      1.02029258	     32.37716752	      1.15989901	     -0.03732036	     71.24098173	      1.24338969	      0.89676498	    -16.64503965	      0.00000000	     -1.38300743	      2.48014076	     -5.99897834	     28.13249093	      0.49100459	     15.15488537	      4.84651757	      0.00000000
      0.02666667	     -4.70892338	     -0.09300391	     -0.72710483	      2.27859828	      1.03550221	      1.02060676	     32.43251861	      1.67449850	     -0.16605637	     67.89447172	      1.18498208	      1.35556958	    -16.45200094	      0.00000000	     -2.97512849	      2.31362744	     -6.20212521	     26.24694494	      0.45809561	     12.04955670	      4.28740900	      0.00000000
      0.03333333	     -4.80102530	     -0.39254294	     -0.93286517	      2.28078869	      1.04073009	      1.02075109	     32.28563751	      2.12809699	     -0.43667150	     64.35521627	      1.12321041	      1.77842030	    -16.10932898	      0.00000000	     -4.57326639	      2.16070570	     -6.22741395	     24.39198264	      0.42572041	      8.77972571	      3.44869807	      0.00000000
      0.04000000	     -4.97767664	     -0.58564444	     -1.19850679	      2.28290920	      1.04557186	      1.02101124	     32.16494696	      2.50929701	     -0.63620914	     60.72007621	      1.05976525	      2.24844893	    -15.60946137	      0.00000000	     -5.96925991	      2.10359284	     -6.40414159	     22.69757638	      0.39614744	      5.51163102	      2.66997585	      0.00000000
      0.04666667	     -5.18291159	     -0.72474893	     -1.44136114	      2.28501602	      1.05013827	      1.02123851	     31.98691401	      2.80782411	     -0.89355906	     56.95258066	      0.99401005	      2.71457763	    -14.85792717	      0.00000000	     -7.20687010	      2.10408396	     -6.54106795	     21.20487614	      0.37009491	      2.25003320	      1.80262357	      0.00000000
      0.05333333	     -5.41095308	     -0.79451894	     -1.71217527	      2.28709350	      1.05440062	      1.02157837	     31.75682028	      3.05010063	     -1.16061912	     53.07568522	      0.92634546	      3.23655137	    -13.86568793	      0.00000000	     -8.29346373	      2.16523827	     -6.74224161	     19.93418933	      0.34791724	     -0.85945918	      0.93669182	      0.00000000
      0.06000000	     -5.69173857	     -0.79039194	     -1.99823934	      2.28910380	      1.05823285	      1.02194797	     31.52816559	      3.22117794	     -1.45869128	     49.12583671	      0.85740760	      3.80608972	    -12.61064881	      0.00000000	     -9.16271217	      2.27896479	     -7.03009211	     18.97187270	      0.33112164	     -3.74690662	      0.11490161	      0.00000000
